<?xml version="1.0" standalone="no"?>
<!DOCTYPE svg PUBLIC "-//W3C//DTD SVG 1.1//EN" "http://www.w3.org/Graphics/SVG/1.1/DTD/svg11.dtd" >
<svg xmlns="http://www.w3.org/2000/svg">
<metadata>Generated by IcoMoon</metadata>
<defs>
<font id="sapienceIcons" horiz-adv-x="1024">
<font-face units-per-em="1024" ascent="877.7142857142858" descent="-146.28571428571428" />
<missing-glyph horiz-adv-x="1024" />
<glyph unicode="&#x20;" horiz-adv-x="256" d="" />
<glyph unicode="&#xe3ba;" glyph-name="control_point" d="M512 42c188 0 342 154 342 342s-154 342-342 342-342-154-342-342 154-342 342-342zM512 810c236 0 426-190 426-426s-190-426-426-426-426 190-426 426 190 426 426 426zM554 598v-172h172v-84h-172v-172h-84v172h-172v84h172v172h84z" />
<glyph unicode="&#xe86c;" glyph-name="check_circle" d="M426 170l384 384-60 62-324-324-152 152-60-60zM512 810c236 0 426-190 426-426s-190-426-426-426-426 190-426 426 190 426 426 426z" />
<glyph unicode="&#xe888;" glyph-name="highlight_off" d="M512 42c188 0 342 154 342 342s-154 342-342 342-342-154-342-342 154-342 342-342zM512 810c236 0 426-190 426-426s-190-426-426-426-426 190-426 426 190 426 426 426zM622 554l60-60-110-110 110-110-60-60-110 110-110-110-60 60 110 110-110 110 60 60 110-110z" />
<glyph unicode="&#xe899;" glyph-name="lock_outline" d="M768 42v428h-512v-428h512zM380 640v-86h264v86c0 72-60 132-132 132s-132-60-132-132zM768 554c46 0 86-38 86-84v-428c0-46-40-84-86-84h-512c-46 0-86 38-86 84v428c0 46 40 84 86 84h42v86c0 118 96 214 214 214s214-96 214-214v-86h42zM512 170c-46 0-86 40-86 86s40 86 86 86 86-40 86-86-40-86-86-86z" />
<glyph unicode="&#xe900;" glyph-name="ic-org-menu" d="M25.6 812.8h972.8c14.138 0 25.6-11.462 25.6-25.6s-11.462-25.6-25.6-25.6h-972.8c-14.138 0-25.6 11.462-25.6 25.6s11.462 25.6 25.6 25.6zM25.6 403.2h972.8c14.138 0 25.6-11.462 25.6-25.6s-11.462-25.6-25.6-25.6h-972.8c-14.138 0-25.6 11.462-25.6 25.6s11.462 25.6 25.6 25.6zM25.6-32h742.4c14.138 0 25.6-11.462 25.6-25.6v0 0c0-14.138-11.462-25.6-25.6-25.6h-742.4c-14.138 0-25.6 11.462-25.6 25.6v0c0 14.138 11.462 25.6 25.6 25.6z" />
<glyph unicode="&#xe901;" glyph-name="ic-configure" d="M480-32c-19.2 0-32 12.8-32 32v48h-288c-19.2 0-32 12.8-32 32s12.8 32 32 32h288v48c0 19.2 12.8 32 32 32s32-12.8 32-32v-48h352c19.2 0 32-12.8 32-32s-12.8-32-32-32h-352v-48c0-19.2-12.8-32-32-32zM704 256c-19.2 0-32 12.8-32 32v48h-512c-19.2 0-32 12.8-32 32s12.8 32 32 32h512v48c0 19.2 12.8 32 32 32s32-12.8 32-32v-48h128c19.2 0 32-12.8 32-32s-12.8-32-32-32h-128v-48c0-19.2-12.8-32-32-32zM288 512c-19.2 0-32 12.8-32 32v48h-96c-19.2 0-32 12.8-32 32s12.8 32 32 32h96v48c0 19.2 12.8 32 32 32s32-12.8 32-32v-48h544c19.2 0 32-12.8 32-32s-12.8-32-32-32h-544v-48c0-19.2-12.8-32-32-32z" />
<glyph unicode="&#xe902;" glyph-name="ic-administration" d="M179.19 198.397h250.573c-3.84 16.614-6.323 33.715-7.475 51.2h-243.098c-14.131 0-25.6 11.469-25.6 25.6v384c0 14.131 11.469 25.6 25.6 25.6h614.4c14.157 0 25.6-11.469 25.6-25.6v-76.8c17.664-4.352 34.816-9.933 51.2-17.075v93.875c-0.077 42.394-34.406 76.723-76.8 76.8h-614.4c-42.368-0.077-76.698-34.406-76.8-76.8v-384c0.102-42.368 34.432-76.723 76.8-76.8zM514.44 44.81h-437.658c-14.106 0-25.6 11.443-25.6 25.6v25.6h422.093c-10.547 16.154-19.763 33.203-27.29 51.2h-420.403c-14.106 0-25.6-11.469-25.6-25.6v-51.2c0.102-42.394 34.432-76.723 76.8-76.8h504.269c-24.397 14.208-46.874 31.309-66.611 51.2zM767.99 270.6c-0.205-14.362-12.006-25.805-26.342-25.6-14.362 0.205-25.83 12.006-25.6 26.368 0.205 14.336 11.981 25.805 26.342 25.6 14.285-0.205 25.702-11.853 25.6-26.112v-0.256zM740.623 348.654c-42.931-0.486-77.312-35.661-76.8-78.592 0.486-42.88 35.661-77.286 78.566-76.774 42.624 0.256 76.979 34.97 76.8 77.568v1.024c-0.512 42.906-35.686 77.286-78.566 76.774v0zM666.465-2.289h-0.128zM971.366 244.736c-2.381 0.205-4.787 0.307-7.168 0.256-36.71-0.077-70.554-19.814-88.73-51.712-19.584-34.381-18.125-76.877 3.763-109.824-13.85-10.419-28.877-19.174-44.749-26.112-10.035 20.89-26.906 37.734-47.795 47.795-50.867 24.474-111.923 3.072-136.397-47.795-15.872 6.938-30.899 15.693-44.749 26.112 7.706 11.648 13.030 24.704 15.642 38.4 4.71 24.448 0.486 49.818-11.878 71.424-18.176 31.898-52.019 51.635-88.73 51.712-2.381 0.051-4.787-0.051-7.168-0.256-1.894 17.459-1.894 35.046 0 52.48 2.381-0.205 4.787-0.282 7.168-0.256 36.71 0.077 70.554 19.814 88.73 51.712 12.39 21.632 16.614 46.976 11.878 71.424-2.611 13.722-7.936 26.778-15.642 38.4 13.926 10.317 28.928 19.098 44.749 26.112 10.086-21.222 27.187-38.298 48.41-48.384 50.842-24.141 111.642-2.483 135.782 48.384 15.821-7.014 30.822-15.795 44.749-26.112-7.68-11.622-13.005-24.678-15.642-38.4-4.71-24.448-0.486-49.792 11.878-71.424 18.176-31.898 52.019-51.635 88.73-51.712 2.381-0.026 4.787 0.051 7.168 0.256 1.894-17.434 1.894-35.021 0-52.48zM1016.96 333.824c-1.69 7.322-6.451 13.542-13.030 17.152-6.605 3.482-14.387 3.942-21.35 1.28-5.862-2.534-12.16-3.84-18.56-3.84-18.406 0.102-35.354 10.061-44.39 26.112-12.518 22.195-7.322 50.125 12.339 66.304 0.922 0.742 1.792 1.587 2.611 2.458 9.83 10.47 9.293 26.906-1.178 36.71-30.746 28.723-67.456 50.227-107.52 62.976-7.117 2.304-14.899 1.28-21.171-2.79-6.323-4.122-10.598-10.726-11.725-18.202-3.328-22.246-20.787-39.731-43.059-43.059-27.955-4.173-54.042 15.104-58.214 43.059-1.152 7.45-5.427 14.054-11.725 18.202-6.272 4.070-14.080 5.094-21.197 2.79-40.038-12.774-76.774-34.278-107.52-62.976-0.87-0.819-1.69-1.69-2.432-2.611-9.011-11.162-7.296-27.52 3.866-36.557 19.661-16.179 24.858-44.134 12.339-66.304-9.037-16.051-25.984-26.010-44.365-26.112-6.4 0-12.749 1.306-18.611 3.84-6.963 2.662-14.746 2.202-21.35-1.28-6.579-3.61-11.29-9.83-13.005-17.152-9.216-41.395-9.216-84.301 0-125.696 0.282-1.331 0.691-2.637 1.178-3.917 5.146-13.184 19.994-19.661 33.178-14.515 23.603 9.37 50.534-0.128 62.976-22.272 12.518-22.17 7.322-50.15-12.339-66.278-0.87-0.717-1.664-1.485-2.432-2.278-9.984-10.522-9.523-27.187 0.998-37.146 30.694-28.723 67.43-50.15 107.52-62.746 2.458-0.819 5.018-1.229 7.603-1.254 4.838-0.026 9.574 1.382 13.568 4.096 6.349 3.917 10.65 10.496 11.725 17.894 3.328 22.272 20.813 39.757 43.059 43.085 27.981 4.173 54.016-15.104 58.214-43.085 1.101-7.398 5.376-13.952 11.725-17.894 6.272-4.096 14.054-5.12 21.171-2.842 40.090 12.595 76.826 34.022 107.52 62.746 5.427 5.197 8.397 12.442 8.192 19.942-0.256 7.578-3.789 14.669-9.626 19.482-19.635 16.154-24.832 44.109-12.314 66.278 12.442 22.144 39.347 31.667 62.95 22.272 1.28-0.486 2.611-0.896 3.968-1.178 13.824-2.995 27.443 5.786 30.413 19.61 4.582 20.608 6.912 41.626 6.886 62.72 0 21.197-2.33 42.291-6.886 62.976z" />
<glyph unicode="&#xe903;" glyph-name="ic-alerts" d="M216.667 95.318c12.973 15.814 24.232 32.983 33.572 51.177 20.189 39.636 30.629 83.495 30.476 127.941v153.53c-1.331 126.534 100.152 230.192 226.661 231.523 126.56 1.356 230.192-100.152 231.548-226.686v-158.366c-0.154-44.447 10.312-88.305 30.476-127.941 9.314-18.219 20.573-35.389 33.572-51.177h-586.304zM586.162 18.553c0.793-42.169-32.779-76.995-74.948-77.763s-76.995 32.779-77.763 74.974c-0.026 0.947-0.026 1.868 0 2.789 0.026 8.726 1.51 17.374 4.376 25.588h143.985c2.866-8.214 4.324-16.863 4.35-25.588v0zM484.371 735.024c0 14.074 11.412 25.512 25.486 25.512 14.099 0 25.512-11.438 25.512-25.512v-26.791c-8.495 0.819-16.939 1.203-25.588 1.203s-17.067-0.384-25.46-1.203v26.791h0.051zM881.45 90.2c-57.932 43.449-91.913 111.795-91.632 184.236v153.53c0.051 125.562-83.008 236.001-203.657 270.801v36.259c0.793 42.169-32.779 76.995-74.948 77.763s-76.995-32.804-77.763-74.974c-0.026-0.921-0.026-1.868 0-2.789v-36.233c-120.649-34.826-203.683-145.265-203.631-270.826v-153.53c0.307-72.44-33.674-140.761-91.632-184.236-8.802-6.627-12.359-18.142-8.854-28.582 3.429-10.414 13.152-17.451 24.104-17.477h231.651c-1.714-8.419-2.559-16.991-2.559-25.588-0.051-70.291 56.908-127.327 127.199-127.353 70.291-0.051 127.302 56.908 127.353 127.199v0.154c0 8.598-0.87 17.17-2.559 25.588h231.651c10.977 0.026 20.675 7.062 24.104 17.477 3.506 10.44-0.077 21.955-8.854 28.582h0.026z" />
<glyph unicode="&#xe904;" glyph-name="ic-share" d="M889.6-121.6h-784c-51.2 0-92.8 41.6-92.8 92.8v598.4c0 51.2 41.6 92.8 92.8 92.8h300.8c19.2 0 32-12.8 32-32s-12.8-32-32-32h-300.8c-16 0-28.8-12.8-28.8-28.8v-601.6c0-16 12.8-28.8 28.8-28.8h780.8c16 0 28.8 12.8 28.8 28.8v272c0 19.2 12.8 32 32 32s32-12.8 32-32v-272c0-48-41.6-89.6-89.6-89.6zM348.8 105.6v108.8c3.2 332.8 236.8 412.8 320 432v188.8l297.6-265.6c3.2-3.2 3.2-3.2 6.4-6.4 32-38.4 28.8-92.8-6.4-128l-297.6-265.6v182.4c-166.4-19.2-259.2-153.6-259.2-156.8l-60.8-89.6zM732.8 691.2v-102.4l-28.8-3.2c-9.6 0-236.8-22.4-281.6-281.6 57.6 51.2 150.4 108.8 278.4 112h32v-105.6l188.8 169.6c9.6 9.6 12.8 25.6 3.2 38.4l-3.2 3.2-188.8 169.6z" />
<glyph unicode="&#xe905;" glyph-name="ic-analytics" d="M863.131 805.272c-6.898 6.898-17.053 9.283-26.285 6.206l-153.863-51.288 67.033-31.619-220.28-219.87c-12.13-11.027-30.234-12.335-43.8-3.154l-123.090 92.138c-33.927 23.951-79.47 23.002-112.371-2.334l-139.81-121.064c-10.411-9.591-11.078-25.823-1.487-36.235 8.821-9.565 23.413-11.027 33.952-3.359l139.81 121.013c14.591 10.437 34.106 10.873 49.159 1.077l123.090-92.164c33.978-24.618 80.701-21.284 110.832 7.898l220.28 219.895 31.696-66.956 51.288 153.606c3.052 9.206 0.667 19.361-6.206 26.234l0.051-0.026zM768.044-57.512h102.575v511.747h-102.575v-511.747zM896.263-108.8h-153.863c-14.181 0-25.644 11.514-25.644 25.644v562.983c0 14.155 11.463 25.644 25.644 25.644h153.863c14.181 0 25.644-11.488 25.644-25.644v-562.983c0-14.13-11.463-25.644-25.644-25.644v0zM511.606-57.512h102.575v306.956h-102.575v-306.956zM639.825-108.8h-153.863c-14.155 0-25.644 11.514-25.644 25.644v358.192c0 14.155 11.488 25.644 25.644 25.644h153.863c14.181 0 25.644-11.488 25.644-25.644v-358.192c0-14.13-11.463-25.644-25.644-25.644v0zM255.169-57.512h102.575v358.166h-102.575v-358.166zM383.388-108.8h-153.863c-14.155 0-25.644 11.514-25.644 25.644v409.403c0 14.155 11.488 25.644 25.644 25.644h153.863c14.155 0 25.644-11.488 25.644-25.644v-409.403c0-14.13-11.488-25.644-25.644-25.644v0z" />
<glyph unicode="&#xe906;" glyph-name="ic-account-selected" d="M497.548 832c-136.815 0-247.742-110.926-247.742-247.742s110.926-247.742 247.742-247.742c136.815 0 247.742 110.926 247.742 247.742s-110.926 247.742-247.742 247.742zM497.548 770.065c102.459 0 185.806-83.347 185.806-185.806s-83.347-185.806-185.806-185.806c-102.459 0-185.806 83.347-185.806 185.806s83.347 185.806 185.806 185.806zM497.548 367.484c-278.152 0-390.317-287.535-430.699-415.463-12.542-39.825 17.868-80.021 60.17-80.021h741.058c42.302 0 72.712 40.196 60.17 80.021-40.382 127.928-152.547 415.463-430.699 415.463zM497.548 305.548c196.185 0 295.273-183.577 343.848-337.557 3.398-10.724-0.956-18.926-3.822-22.854-5.229-7.114-13.405-11.201-22.429-11.201h-635.193c-9.025 0-17.2 4.088-22.429 11.201-2.867 3.928-7.22 12.131-3.822 22.854 48.575 153.98 147.663 337.557 343.848 337.557z" />
<glyph unicode="&#xe907;" glyph-name="ic-capacity-utilization-normal" d="M870.405 608.003v0c28.262 0 51.2-22.938 51.2-51.2v-102.4c0-28.262-22.938-51.2-51.2-51.2h-102.4c-28.262 0-51.2 22.938-51.2 51.2v102.4c0 28.262 22.938 51.2 51.2 51.2h102.4zM768.005 454.403h102.4v102.4h-102.4v-102.4zM563.205 608.003v0c28.262 0 51.2-22.938 51.2-51.2v-102.4c0-28.262-22.938-51.2-51.2-51.2h-102.4c-28.262 0-51.2 22.938-51.2 51.2v102.4c0 28.262 22.938 51.2 51.2 51.2h102.4zM460.805 454.403h102.4v102.4h-102.4v-102.4zM563.205 300.78v0c28.262 0 51.2-22.938 51.2-51.2v-102.4c0-28.262-22.938-51.2-51.2-51.2h-102.4c-28.262 0-51.2 22.938-51.2 51.2v102.4c0 28.262 22.938 51.2 51.2 51.2h102.4zM460.805 147.18h102.4v102.4h-102.4v-102.4zM256.005 608.003v0c28.262 0 51.2-22.938 51.2-51.2v-102.4c0-28.262-22.938-51.2-51.2-51.2h-102.4c-28.262 0-51.2 22.938-51.2 51.2v102.4c0 28.262 22.938 51.2 51.2 51.2h102.4zM153.605 454.403h102.4v102.4h-102.4v-102.4zM256.005 300.78v0c28.262 0 51.2-22.938 51.2-51.2v-102.4c0-28.262-22.938-51.2-51.2-51.2h-102.4c-28.262 0-51.2 22.938-51.2 51.2v102.4c0 28.262 22.938 51.2 51.2 51.2h102.4zM153.605 147.18h102.4v102.4h-102.4v-102.4zM870.405 300.78v0c28.262 0 51.2-22.938 51.2-51.2v-102.4c0-28.262-22.938-51.2-51.2-51.2h-102.4c-28.262 0-51.2 22.938-51.2 51.2v102.4c0 28.262 22.938 51.2 51.2 51.2h102.4zM768.005 147.18h102.4v102.4h-102.4v-102.4z" />
<glyph unicode="&#xe908;" glyph-name="ic-new-page" d="M597.163 864v-85.333h278.485l-629.888-629.931 60.331-60.331 632.576 632.576v-281.088h85.333v424.107h-426.837zM938.667 265.899h85.333v-383.232c0-23.552-19.115-42.667-42.667-42.667h-938.667c-23.595 0-42.667 19.115-42.667 42.667v938.667c0 23.595 19.072 42.667 42.667 42.667h375.637v-85.333h-332.971v-853.333h853.333v340.565z" />
<glyph unicode="&#xe909;" glyph-name="ic-daily-effort" d="M680.986 142.938l-80.461 63.36c-11.085 8.755-12.979 24.858-4.25 35.942 8.755 11.11 24.858 13.030 35.968 4.275l80.41-63.36c10.778-9.165 12.058-25.318 2.918-36.096-8.704-10.189-23.782-11.955-34.586-4.070v-0.051zM691.2 352.013c-98.944 0-179.2-80.23-179.2-179.2s80.256-179.2 179.2-179.2c98.995 0 179.2 80.23 179.2 179.2-0.102 98.918-80.256 179.072-179.2 179.2v0zM691.2-57.587c-127.232 0-230.4 103.142-230.4 230.4s103.168 230.4 230.4 230.4c127.258 0 230.4-103.142 230.4-230.4-0.102-127.181-103.194-230.246-230.4-230.4v0zM359.68 378.918c-6.758-0.026-13.312 2.662-18.15 7.45-79.974 79.974-80 209.638-0.026 289.638 79.974 79.974 209.664 80 289.638 0.026 45.67-45.645 67.149-110.182 57.882-174.106-1.997-14.003-14.976-23.731-28.979-21.709s-23.731 15.002-21.709 29.005c12.109 83.968-46.157 161.843-130.099 173.978-83.942 12.109-161.843-46.157-173.952-130.125-6.912-47.898 9.139-96.256 43.366-130.509 9.984-10.035 9.933-26.24-0.102-36.198-4.762-4.762-11.238-7.424-17.997-7.45h0.128zM409.6-31.987h-204.8c-42.394 0-76.8 34.381-76.8 76.8 1.331 27.904 8.832 55.117 22.016 79.744 31.77 58.445 85.018 102.272 148.48 122.266 13.286 4.813 27.955-2.074 32.768-15.36 4.813-13.312-2.074-27.981-15.386-32.794-132.915-48.051-136.678-148.736-136.678-153.856 0-14.131 11.494-25.6 25.6-25.6h204.8c14.157 0 25.6-11.443 25.6-25.6 0-14.131-11.443-25.6-25.6-25.6v0z" />
<glyph unicode="&#xe90a;" glyph-name="reorder-3" d="M481.011 46.989v-96c0-26.496-21.73-48-48.505-48h-97.011c-26.775 0-48.505 21.504-48.505 48v96c0 26.496 21.73 48 48.505 48h97.011c26.775 0 48.505-21.504 48.505-48zM481.011 750.989v-96c0-26.496-21.73-48-48.505-48h-97.011c-26.775 0-48.505 21.504-48.505 48v96c0 26.496 21.73 48 48.505 48h97.011c26.775 0 48.505-21.504 48.505-48zM481.011 398.989v-96c0-26.496-21.73-48-48.505-48h-97.011c-26.775 0-48.505 21.504-48.505 48v96c0 26.496 21.73 48 48.505 48h97.011c26.775 0 48.505-21.504 48.505-48zM737.011 46.989v-96c0-26.496-21.73-48-48.505-48h-97.011c-26.775 0-48.505 21.504-48.505 48v96c0 26.496 21.73 48 48.505 48h97.011c26.775 0 48.505-21.504 48.505-48zM737.011 750.989v-96c0-26.496-21.73-48-48.505-48h-97.011c-26.775 0-48.505 21.504-48.505 48v96c0 26.496 21.73 48 48.505 48h97.011c26.775 0 48.505-21.504 48.505-48zM737.011 398.989v-96c0-26.496-21.73-48-48.505-48h-97.011c-26.775 0-48.505 21.504-48.505 48v96c0 26.496 21.73 48 48.505 48h97.011c26.775 0 48.505-21.504 48.505-48z" />
<glyph unicode="&#xe90b;" glyph-name="ic-dashboard" d="M512-110.17c-173.108-0.125-331.766 96.52-411.095 250.394h295.241c21.265-63.994 90.366-98.613 154.347-77.361 36.538 12.134 65.215 40.811 77.361 77.361h295.241c-79.316-153.874-237.987-250.519-411.095-250.394zM512 249.837c39.901 0 72.253-32.339 72.253-72.241 0-39.914-32.352-72.253-72.253-72.253s-72.253 32.339-72.253 72.253c0 39.901 32.352 72.241 72.253 72.241zM900.672 327.085h73.499c-2.504-46.877-12.158-93.094-28.652-137.032h-311.436c-5.481 53.118-44.834 96.508-97.168 107.134v220.484c0 13.765-11.162 24.915-24.915 24.915s-24.915-11.149-24.915-24.915v-220.484c-51.848-11.1-90.603-54.389-95.922-107.134h-311.436c-16.494 43.937-26.148 90.154-28.652 137.032h73.499c13.753 0 24.915 11.149 24.915 24.915 0 13.753-11.162 24.915-24.915 24.915h-74.745c5.743 105.427 47.525 205.697 118.345 284.017l51.075-51.063c11.012-8.259 26.622-6.029 34.881 4.983 6.64 8.857 6.64 21.041 0 29.898l-51.075 51.075c78.32 70.808 178.59 112.59 284.029 118.345v-73.499c0-13.765 11.162-24.915 24.915-24.915s24.915 11.149 24.915 24.915v73.499c105.44-5.755 205.709-47.538 284.029-118.345l-51.075-51.075c-11.012-8.259-13.23-23.881-4.983-34.881 8.259-11.012 23.881-13.242 34.881-4.995 1.894 1.42 3.575 3.102 4.983 4.995l51.075 51.063c70.82-78.32 112.603-178.59 118.346-284.017h-73.499c-13.753 0-24.915-11.162-24.915-24.915 0-13.765 11.162-24.915 24.915-24.915zM512 864c-282.771 0-512-229.241-512-512 0-282.783 229.229-512 512-512s512 229.217 512 512c-0.685 282.484-229.516 511.315-512 512z" />
<glyph unicode="&#xe90c;" glyph-name="magnifying-glass" d="M1015.031-75.778l-248.848 248.848c66.753 76.743 107.168 176.873 107.168 286.311 0 240.901-195.945 436.619-436.619 436.619-240.901 0-436.619-195.945-436.619-436.619s195.945-436.619 436.619-436.619c109.439 0 209.568 40.415 286.311 107.168l248.848-248.848c5.903-5.903 13.85-9.082 21.57-9.082s15.667 2.952 21.57 9.082c11.807 11.807 11.807 31.333 0 43.14zM61.19 459.381c0 207.071 168.472 375.315 375.315 375.315 207.071 0 375.315-168.472 375.315-375.315s-168.245-375.542-375.315-375.542c-206.843 0-375.315 168.472-375.315 375.542z" />
<glyph unicode="&#xe90f;" glyph-name="ic-output-effort" d="M844.787 480h-460.8v153.6h435.2c14.157 0 25.6-11.469 25.6-25.6v-128zM383.987 275.2v153.6h460.8v-153.6h-460.8zM844.787 96c0-14.157-11.443-25.6-25.6-25.6h-435.2v153.6h460.8v-128zM204.787 70.4c-14.131 0-25.6 11.443-25.6 25.6v512c0 14.131 11.469 25.6 25.6 25.6h128v-563.2h-128zM819.187 684.8h-614.4c-42.394 0-76.8-34.381-76.8-76.8v-512c0-42.419 34.406-76.8 76.8-76.8h614.4c42.419 0 76.8 34.381 76.8 76.8v512c0 42.419-34.381 76.8-76.8 76.8v0z" />
<glyph unicode="&#xe911;" glyph-name="ic-reports" d="M358.4 172.749h204.8c14.157 0 25.6-11.443 25.6-25.6s-11.443-25.6-25.6-25.6h-204.8c-14.131 0-25.6 11.443-25.6 25.6s11.469 25.6 25.6 25.6zM358.4 326.349h307.2c14.157 0 25.6-11.443 25.6-25.6s-11.443-25.6-25.6-25.6h-307.2c-14.131 0-25.6 11.443-25.6 25.6s11.469 25.6 25.6 25.6zM358.4 479.949h307.2c14.157 0 25.6-11.469 25.6-25.6s-11.443-25.6-25.6-25.6h-307.2c-14.131 0-25.6 11.469-25.6 25.6s11.469 25.6 25.6 25.6zM361.472 633.549h301.056c-4.429 17.613-16.358 32.435-32.666 40.448-12.826 6.426-26.854 10.086-41.19 10.752-14.106 0.077-25.472 11.52-25.472 25.6 0 42.342-8.858 76.8-51.2 76.8s-51.2-34.458-51.2-76.8c0-14.157-37.069-25.6-51.2-25.6 0 0 4.454-0.358-15.36-10.752-16.358-7.987-28.339-22.81-32.768-40.448zM691.2 582.349h-358.4c-14.131 0-25.6 11.469-25.6 25.6-2.534 47.155 23.091 91.315 65.306 112.512 12.39 6.093 25.549 10.47 39.117 12.979 10.906 59.622 37.632 104.96 100.301 104.96s89.395-45.286 100.301-104.96c13.568-2.509 26.726-6.886 39.117-12.979 41.83-20.89 67.456-64.41 65.459-111.104 0.026-0.461 0.026-0.922 0-1.408 0-14.131-11.443-25.6-25.6-25.6zM793.6-134.451h-563.2c-42.419 0-76.8 34.381-76.8 76.8v665.6c0 42.419 34.381 76.8 76.8 76.8 14.131 0 25.6-11.469 25.6-25.6s-11.469-25.6-25.6-25.6c-14.131 0-25.6-11.469-25.6-25.6v-665.6c0-14.157 11.469-25.6 25.6-25.6h563.2c14.157 0 25.6 11.443 25.6 25.6v665.6c0 14.131-11.443 25.6-25.6 25.6s-25.6 11.469-25.6 25.6c0 14.131 11.443 25.6 25.6 25.6 42.419 0 76.8-34.381 76.8-76.8v-665.6c0-42.419-34.381-76.8-76.8-76.8z" />
<glyph unicode="&#xe912;" glyph-name="ic-timesheets" d="M614.4 96v102.4h102.4v-102.4h-102.4zM307.2 96v102.4h102.4v-102.4h-102.4zM307.2 249.6v102.4h102.4v-102.4h-102.4zM460.8 96v102.4h102.4v-102.4h-102.4zM460.8 249.6v102.4h102.4v-102.4h-102.4zM614.4 249.6v102.4h102.4v-102.4h-102.4zM742.4 403.2h-460.8c-14.157 0-25.6-11.469-25.6-25.6v-307.2c0-14.131 11.443-25.6 25.6-25.6h460.8c14.157 0 25.6 11.469 25.6 25.6v307.2c0 14.131-11.443 25.6-25.6 25.6v0zM844.8-57.6h-665.6c-14.157 0-25.6 11.469-25.6 25.6v768c0 14.131 11.443 25.6 25.6 25.6h435.2v-179.2c0-42.419 34.381-76.8 76.8-76.8h179.2v-537.6c0-14.131-11.443-25.6-25.6-25.6v0zM859.802 556.8h-168.602c-14.157 0-25.6 11.469-25.6 25.6v168.602l194.202-194.202zM914.125 574.899l-230.4 230.4c-4.787 4.838-11.315 7.526-18.125 7.501h-486.4c-42.419 0-76.8-34.381-76.8-76.8v-768c0-42.419 34.381-76.8 76.8-76.8h665.6c42.419 0 76.8 34.381 76.8 76.8v588.8c0 6.784-2.688 13.286-7.475 18.099v0z" />
<glyph unicode="&#xe914;" glyph-name="ic-trend" d="M947.389 19.2v-51.2h-845.005c-14.131 0-25.6 11.443-25.6 25.6l0.205 742.4h51.2l-0.307-716.8h819.507zM819.389 556.8c-14.157 0-25.6 11.469-25.6 25.6s11.443 25.6 25.6 25.6c14.131 0 25.6-11.469 25.6-25.6s-11.469-25.6-25.6-25.6zM664.612 300.134c-14.157 0-25.6 11.469-25.6 25.6s11.443 25.6 25.6 25.6c14.131 0 25.6-11.469 25.6-25.6s-11.469-25.6-25.6-25.6zM460.273 478.925c-14.157 0-25.6 11.469-25.6 25.6s11.443 25.6 25.6 25.6c14.131 0 25.6-11.469 25.6-25.6s-11.469-25.6-25.6-25.6zM306.929 172.339c-14.106 0-25.6 11.469-25.6 25.6s11.494 25.6 25.6 25.6c14.157 0 25.6-11.469 25.6-25.6s-11.443-25.6-25.6-25.6zM819.389 659.2c-42.419 0-76.8-34.381-76.8-76.8 0-20.096 7.885-38.221 20.506-51.891l-72.986-130.765c-8.525 2.97-17.715 4.019-26.906 2.688-13.824-0.23-27.315-4.224-39.040-11.546l-91.494 88.55c2.842 8.090 4.301 16.614 4.301 25.19 0.077 42.342-34.202 76.723-76.544 76.8-42.368 0.077-76.749-34.202-76.8-76.544-0.026-19.917 7.68-39.066 21.504-53.402l-88.678-177.408c-3.149 0.41-6.323 0.614-9.498 0.614-42.394 0.077-76.877-34.202-76.954-76.621-0.102-42.419 34.202-76.902 76.621-76.979s76.877 34.202 76.979 76.621c0.051 19.942-7.654 39.091-21.478 53.453l88.73 177.408c3.123-0.384 6.298-0.589 9.446-0.589 14.285-0.026 28.314 4.019 40.422 11.622l91.494-88.576c-2.842-8.090-4.301-16.614-4.275-25.19-0.077-42.342 34.202-76.749 76.544-76.774 42.342-0.077 76.723 34.176 76.774 76.544 0.026 14.464-4.454 28.211-11.904 40.243l78.669 140.902c3.712-0.563 7.475-1.152 11.366-1.152 42.394 0 76.8 34.381 76.8 76.8s-34.406 76.8-76.8 76.8z" />
<glyph unicode="&#xe916;" glyph-name="ic-utilization-trend" d="M563.258 654.592v-251.392h251.571c-21.888 128.742-122.803 229.581-251.571 251.392v0zM844.858 352h-332.8v358.4c197.939 0 358.4-160.461 358.4-358.4h-25.6zM460.858 654.592c-167.194-28.186-279.91-186.598-251.699-353.792 28.186-167.194 186.598-279.885 353.792-251.699 128.922 21.734 229.965 122.752 251.699 251.699h51.738c-28.16-195.789-209.741-331.725-405.53-303.565-195.814 28.16-331.725 209.715-303.565 405.53 22.605 157.338 146.227 280.934 303.565 303.565v-51.738z" />
<glyph unicode="&#xe917;" glyph-name="ic-account" d="M497.548 832c-136.815 0-247.742-110.926-247.742-247.742s110.926-247.742 247.742-247.742c136.815 0 247.742 110.926 247.742 247.742s-110.926 247.742-247.742 247.742zM497.548 770.065c102.459 0 185.806-83.347 185.806-185.806s-83.347-185.806-185.806-185.806c-102.459 0-185.806 83.347-185.806 185.806s83.347 185.806 185.806 185.806zM497.548 367.484c-278.152 0-390.317-287.535-430.699-415.463-12.542-39.825 17.868-80.021 60.17-80.021h741.058c42.302 0 72.712 40.196 60.17 80.021-40.382 127.928-152.547 415.463-430.699 415.463zM497.548 305.548c196.185 0 295.273-183.577 343.848-337.557 3.398-10.724-0.956-18.926-3.822-22.854-5.229-7.114-13.405-11.201-22.429-11.201h-635.193c-9.025 0-17.2 4.088-22.429 11.201-2.867 3.928-7.22 12.131-3.822 22.854 48.575 153.98 147.663 337.557 343.848 337.557z" />
<glyph unicode="&#xe918;" glyph-name="ic-save" d="M752 832h-660c-33 0-60-27-60-60v-840c0-33 27-60 60-60h840c33 0 60 27 60 60v693.99l-240 206.010zM725.64 772l206.36-177.128v-634.872c0-15.428-12.572-28-28-28h-784c-15.428 0-28 12.572-28 28v784c0 15.428 12.572 28 28 28h605.64zM812 382h-600c-33 0-60-27-60-60v-240c0-33 27-60 60-60h600c33 0 60 27 60 60v240c0 33-27 60-60 60zM784.727 322c15.027 0 27.273-10.776 27.273-24v-192c0-13.224-12.245-24-27.273-24h-545.455c-15.027 0-27.273 10.776-27.273 24v192c0 13.224 12.245 24 27.273 24h545.455zM722 832h-480v-270c0-33 27-60 60-60h360c33 0 60 27 60 60v270zM662 772v-186.667c0-12.857-11.546-23.333-25.714-23.333h-308.571c-14.169 0-25.714 10.477-25.714 23.333v186.667h360z" />
<glyph unicode="&#xe91b;" glyph-name="ic-filter-empty" d="M899.576 758.221c-28.768 17.836-60.095 31.167-92.894 39.529-188.721 45.591-385.585 45.591-574.306 0-32.818-8.307-64.153-21.641-92.894-39.529-25.189-13.418-41.64-38.917-43.482-67.398v-28.235c4.506-32.777 16.909-63.968 36.141-90.889l276.141-357.798c15.78-26.7 24.885-56.813 26.541-87.784v-225.882c0.013-9.747 5.022-18.807 13.271-24 4.522-2.718 9.688-4.18 14.965-4.235 4.41 0.003 8.759 1.027 12.706 2.993l112.941 56.471c9.476 4.862 15.462 14.592 15.529 25.242v169.412c1.656 30.97 10.761 61.084 26.541 87.784l276.141 357.798c19.223 26.926 31.625 58.115 36.141 90.889v28.235c-1.842 28.481-18.293 53.979-43.482 67.398v0 0zM247.906 743.539c178.571 42.654 364.677 42.654 543.247 0 77.929-22.278 95.435-46.108 95.435-52.715s-17.506-30.494-95.435-52.715c-178.571-42.654-364.676-42.654-543.247 0-77.929 22.278-95.435 46.108-95.435 52.715s17.506 30.494 95.435 52.715zM583.906 245.242c-22.001-35.98-34.442-76.985-36.141-119.125v-151.991l-56.471-28.235v180.226c-1.683 42.142-14.125 83.152-36.141 119.125l-275.576 356.838c17.194-7.197 34.83-13.289 52.8-18.24 188.721-45.591 385.585-45.591 574.306 0 17.88 4.966 35.422 11.078 52.518 18.296l-275.294-356.894z" />
<glyph unicode="&#xe91d;" glyph-name="ic-dashlit-leaderboard" d="M381.717 168.51v0c18.926 0 34.286-15.326 34.286-34.286v-259.783h-319.989v259.783c0 18.96 15.326 34.286 34.286 34.286h251.417zM164.585-56.987h182.846v156.926h-182.846v-156.926zM632.901 558.993v0c18.96 0 34.286-15.36 34.286-34.286v-650.263h-319.989v650.263c0 18.926 15.36 34.286 34.286 34.286h251.417zM415.769-56.984h182.846v547.406h-182.846v-547.406zM884.654 293.498v0c18.926 0 34.286-15.326 34.286-34.286v-384.789h-320.023v384.789c0 18.96 15.36 34.286 34.286 34.286h251.451zM667.488-57.005h182.88v281.931h-182.88v-281.931zM508.179 677.605l56.606-29.76c1.543-0.823 3.326 0.48 3.017 2.194l-10.8 63.051c-0.103 0.686 0.137 1.371 0.583 1.851l45.806 44.64c1.234 1.2 0.583 3.291-1.131 3.566l-63.326 9.189c-0.651 0.103-1.269 0.514-1.543 1.131l-28.32 57.36c-0.754 1.577-2.983 1.577-3.737 0l-28.32-57.36c-0.309-0.617-0.891-1.029-1.543-1.131l-63.326-9.189c-1.714-0.274-2.4-2.366-1.166-3.566l45.806-44.64c0.514-0.48 0.72-1.166 0.617-1.851l-10.834-63.051c-0.274-1.714 1.509-3.017 3.051-2.194l56.606 29.76c0.617 0.309 1.337 0.309 1.954 0z" />
<glyph unicode="&#xe921;" glyph-name="ic-calander" d="M223.943 255.233h351.91c17.691 0 31.992-14.332 31.992-31.992 0-17.691-14.3-31.992-31.992-31.992h-351.91c-17.66 0-31.992 14.3-31.992 31.992 0 17.66 14.332 31.992 31.992 31.992v0zM114.339 702.512h141.596v-65.839c0-17.66 14.332-31.992 31.992-31.992s31.992 14.332 31.992 31.992v65.839h383.902v-65.839c0-17.66 14.3-31.992 31.992-31.992s31.992 14.332 31.992 31.992v65.839h164.342c16.732-1.312 29.273-15.964 27.961-32.728-0.064-0.928-0.192-1.888-0.352-2.815v-219.304h-895.772v219.304c7.518 21.339 27.737 35.543 50.355 35.415v0.128zM932.147-64.685h-817.808c-22.906 0.576-43.029 15.324-50.355 37.047v410.52h895.772v-408.792c3.455-17.819-8.158-35.031-25.945-38.486-0.544-0.128-1.12-0.224-1.664-0.288v0zM114.339-128.669h816.080c51.891 0.224 93.832 42.485 93.576 94.376 0 2.239-0.096 4.447-0.256 6.654v694.479c3.807 51.091-34.551 95.592-85.642 99.399-2.559 0.192-5.119 0.256-7.678 0.256h-162.615v65.519c0 17.66-14.3 31.992-31.992 31.992s-31.992-14.332-31.992-31.992v-65.519h-383.902v65.519c0 17.66-14.332 31.992-31.992 31.992s-31.992-14.332-31.992-31.992v-65.519h-141.596c-56.466 0-114.339-43.061-114.339-99.655v-692.752c5.087-59.025 55.122-103.974 114.339-102.758v0z" />
<glyph unicode="&#xe922;" glyph-name="ic-dashlit-view-selected" d="M156.8-64c-51.252 0-92.8 41.328-92.8 92.308v615.385c0 50.98 41.548 92.308 92.8 92.308h742.4c51.252 0 92.8-41.328 92.8-92.308v-615.385c0-50.98-41.548-92.308-92.8-92.308h-742.4zM128 384h384v288h-353.231c-16.993 0-30.769-13.676-30.769-30.545v-257.455zM128 320v-289.455c0-16.87 13.776-30.545 30.769-30.545h353.231v320h-384zM928 384v257.455c0 16.87-13.776 30.545-30.769 30.545h-321.231v-288h352zM928 320h-352v-320h321.231c16.993 0 30.769 13.676 30.769 30.545v289.455z" />
<glyph unicode="&#xf104;" glyph-name="ic-arrow-left" horiz-adv-x="366" d="M358.286 553.143q0-7.429-5.714-13.143l-224.571-224.571 224.571-224.571q5.714-5.714 5.714-13.143t-5.714-13.143l-28.571-28.571q-5.714-5.714-13.143-5.714t-13.143 5.714l-266.286 266.286q-5.714 5.714-5.714 13.143t5.714 13.143l266.286 266.286q5.714 5.714 13.143 5.714t13.143-5.714l28.571-28.571q5.714-5.714 5.714-13.143z" />
<glyph unicode="&#xf105;" glyph-name="ic-arrow-right" horiz-adv-x="366" d="M340 315.429q0-7.429-5.714-13.143l-266.286-266.286q-5.714-5.714-13.143-5.714t-13.143 5.714l-28.571 28.571q-5.714 5.714-5.714 13.143t5.714 13.143l224.571 224.571-224.571 224.571q-5.714 5.714-5.714 13.143t5.714 13.143l28.571 28.571q5.714 5.714 13.143 5.714t13.143-5.714l266.286-266.286q5.714-5.714 5.714-13.143z" />
<glyph unicode="&#xf106;" glyph-name="ic-arrow-up" horiz-adv-x="658" d="M614.286 187.429q0-7.429-5.714-13.143l-28.571-28.571q-5.714-5.714-13.143-5.714t-13.143 5.714l-224.571 224.571-224.571-224.571q-5.714-5.714-13.143-5.714t-13.143 5.714l-28.571 28.571q-5.714 5.714-5.714 13.143t5.714 13.143l266.286 266.286q5.714 5.714 13.143 5.714t13.143-5.714l266.286-266.286q5.714-5.714 5.714-13.143z" />
<glyph unicode="&#xf107;" glyph-name="ic-arrow-down" horiz-adv-x="658" d="M614.286 443.429q0-7.429-5.714-13.143l-266.286-266.286q-5.714-5.714-13.143-5.714t-13.143 5.714l-266.286 266.286q-5.714 5.714-5.714 13.143t5.714 13.143l28.571 28.571q5.714 5.714 13.143 5.714t13.143-5.714l224.571-224.571 224.571 224.571q5.714 5.714 13.143 5.714t13.143-5.714l28.571-28.571q5.714-5.714 5.714-13.143z" />
</font>
</defs>
</svg>
